<!-- Generated by IcoMoon.io -->
<svg version="1.1" xmlns="http://www.w3.org/2000/svg" width="260" height="260" viewBox="0 0 32 32">
<title>inbox</title>
<path fill="#dddddd" d="M31.239 18.007v8.383c0 1.33-1.077 2.407-2.407 2.407h-25.671c-1.33 0-2.407-1.077-2.407-2.407v-8.383h9.867c0 0 0.884 4.453 5.376 4.453s5.376-4.453 5.376-4.453h9.867z"></path>
<path fill="#dddddd" d="M31.239 17.923v0.077h-5.576v-6.222h-2.407v-4.814h-14.52v4.814h-2.007v6.222h-5.976v-0.077l4.983-13.174c0.354-0.938 1.254-1.553 2.253-1.553h16.012c1 0 1.892 0.615 2.253 1.553l4.983 13.174z"></path>
<path fill="#dddddd" d="M25.663 17.807v0.2h-4.291c0 0-0.884 4.453-5.376 4.453s-5.376-4.453-5.376-4.453h-3.891v-6.222h18.934v6.022z"></path>
<path fill="#dddddd" d="M8.736 6.971h14.52v4.814h-14.52v-4.814z"></path>
<path fill="#000" d="M26.97 4.495c-0.461-1.223-1.661-2.030-2.969-2.030h-16.012c-1.307 0-2.499 0.808-2.969 2.030l-4.983 13.166c-0.031 0.085-0.038 0.169-0.038 0.261v8.467c0 1.753 1.407 3.145 3.161 3.145h25.678c1.753 0 3.161-1.392 3.161-3.145v-8.467c0-0.092-0.008-0.177-0.038-0.261l-4.991-13.166zM6.46 5.041c0.238-0.631 0.854-1.038 1.53-1.038h16.012c0.677 0 1.292 0.408 1.53 1.038l4.622 12.189h-3.699v-5.445c0-0.423-0.369-0.784-0.792-0.784h-1.669v-4.030c0-0.423-0.315-0.738-0.738-0.738h-14.52c-0.423 0-0.738 0.315-0.738 0.738v4.030h-1.269c-0.423 0-0.808 0.361-0.808 0.784v5.445h-4.084l4.622-12.189zM22.487 12.539h2.43v4.691h-3.545c-0.361 0-0.677 0.261-0.754 0.623-0.031 0.154-0.831 3.838-4.622 3.838s-4.591-3.684-4.622-3.838c-0.069-0.361-0.385-0.623-0.754-0.623h-3.161v-4.691h15.027zM9.536 11.001v-3.23h12.92v3.23h-12.92zM30.454 26.39c0 0.9-0.715 1.607-1.623 1.607h-25.671c-0.9 0-1.623-0.7-1.623-1.607v-7.621h8.498c0.162 0.461 0.461 1.2 0.954 1.9 0.815 1.161 2.353 2.553 4.999 2.553s4.184-1.392 4.999-2.553c0.5-0.708 0.792-1.438 0.954-1.9h8.513v7.621z"></path>
</svg>
